<svg xmlns="http://www.w3.org/2000/svg" viewBox="0 0 240 240"><linearGradient id="a" gradientUnits="userSpaceOnUse" x1="251.45" y1="157.05" x2="251.45" y2="156.05" gradientTransform="matrix(240 0 0 -240 -60228 37692)"><stop offset="0" stop-color="#d1e4ff"/><stop offset="1" stop-color="#ecf7fa"/></linearGradient><path fill="url(#a)" d="M0 0h240v240H0z"/><radialGradient id="b" cx="254.8489" cy="156.3395" r="1.3996" gradientTransform="matrix(0 -92 -191.73 0 30094.9297 23622.2793)" gradientUnits="userSpaceOnUse"><stop offset="0" stop-color="#81b4ff" stop-opacity=".23"/><stop offset="1" stop-color="#21539b"/></radialGradient><path d="M118.6 62L108 99.1l19.9 8.3-14.1 28.2 17.4 6.7-11 35.7H50c-.8 0-1.3-.5-1.3-1.3V63.3c0-.8.5-1.3 1.3-1.3h68.6zm13 0h58.3c.8 0 1.3.5 1.3 1.3v113.5c0 .8-.5 1.3-1.3 1.3h-61.4l12.7-42.4-15-6.7 15-30-21.6-6.7 12-30.3zm36.3 22.7c-7.3 0-13.2 5.9-13.2 13.2s5.9 13.2 13.2 13.2 13.2-5.9 13.2-13.2-5.9-13.2-13.2-13.2z" fill="url(#b)"/></svg>