<?xml version="1.0" encoding="utf-8"?>
<!-- Generator: Adobe Illustrator 23.0.1, SVG Export Plug-In . SVG Version: 6.00 Build 0)  -->
<svg version="1.1" id="图层_1" xmlns="http://www.w3.org/2000/svg" xmlns:xlink="http://www.w3.org/1999/xlink" x="0px" y="0px"
	 viewBox="0 0 72 72" style="enable-background:new 0 0 72 72;" xml:space="preserve">
<style type="text/css">
	.st0{fill:#fff;}
</style>
<path class="st0" d="M54.5,61c-1.5,1.5-4.1,1.5-5.6,0L36.3,48.4c-2-2-3-4.7-2.9-7.5c0.1-2.8,1.4-5.4,3.6-7.2c4-3.3,9.9-2.7,13.6,1
	l1.1,1.1l1.1-1.1c3.7-3.7,9.6-4.2,13.6-1c2.2,1.8,3.5,4.4,3.6,7.2c0.1,2.8-0.9,5.5-2.9,7.5L54.5,61z M39.4,58.9l-1.3,1.3
	c-2.6,2.6-6.9,2.6-9.6,0L7,38.6c-3.4-3.4-5.2-8-4.9-12.8s2.5-9.2,6.2-12.2c6.8-5.6,17-4.6,23.2,1.6l1.9,1.9l1.9-1.9
	c6.3-6.2,16.4-7.3,23.2-1.6c3.7,3,5.9,7.5,6.2,12.2c0,0.4,0,0.8,0,1.2c-4.3-1.3-9.1-0.6-12.9,1.9c-5.5-3.6-12.8-3.5-18,0.8
	c-3.3,2.7-5.3,6.7-5.5,10.9c-0.2,4.3,1.4,8.4,4.4,11.4L39.4,58.9z"/>
</svg>
